<svg width="1080" height="1080" viewBox="0 0 1080 1080" fill="none" xmlns="http://www.w3.org/2000/svg">
<rect width="1080" height="1080" rx="540" fill="#141414"/>
<path d="M678.833 314.333H401.167C379.259 314.333 361.5 332.093 361.5 354V512.667C361.5 534.574 379.259 552.333 401.167 552.333H678.833C700.741 552.333 718.5 534.574 718.5 512.667V354C718.5 332.093 700.741 314.333 678.833 314.333Z" stroke="white" stroke-width="24" stroke-linecap="round" stroke-linejoin="round"/>
<path d="M341.667 631.667H738.334" stroke="white" stroke-width="24" stroke-linecap="round" stroke-linejoin="round"/>
<path d="M223.352 697.32V712.296H205.304V765H186.488V712.296H168.632V697.32H223.352ZM281.77 737.448C281.77 738.92 281.674 740.392 281.482 741.864H245.866C246.058 744.808 246.858 747.016 248.266 748.488C249.738 749.896 251.594 750.6 253.834 750.6C256.97 750.6 259.21 749.192 260.554 746.376H280.618C279.786 750.088 278.154 753.416 275.722 756.36C273.354 759.24 270.346 761.512 266.698 763.176C263.05 764.84 259.018 765.672 254.602 765.672C249.29 765.672 244.554 764.552 240.394 762.312C236.298 760.072 233.066 756.872 230.698 752.712C228.394 748.552 227.242 743.656 227.242 738.024C227.242 732.392 228.394 727.528 230.698 723.432C233.002 719.272 236.202 716.072 240.298 713.832C244.458 711.592 249.226 710.472 254.602 710.472C259.914 710.472 264.618 711.56 268.714 713.736C272.81 715.912 276.01 719.048 278.314 723.144C280.618 727.176 281.77 731.944 281.77 737.448ZM262.57 732.744C262.57 730.44 261.802 728.648 260.266 727.368C258.73 726.024 256.81 725.352 254.506 725.352C252.202 725.352 250.314 725.992 248.842 727.272C247.37 728.488 246.41 730.312 245.962 732.744H262.57ZM286.398 738.024C286.398 732.456 287.55 727.592 289.854 723.432C292.158 719.272 295.358 716.072 299.454 713.832C303.614 711.592 308.35 710.472 313.662 710.472C320.51 710.472 326.27 712.36 330.942 716.136C335.614 719.848 338.622 725.064 339.966 731.784H319.998C318.846 728.264 316.606 726.504 313.278 726.504C310.91 726.504 309.022 727.496 307.614 729.48C306.27 731.4 305.598 734.248 305.598 738.024C305.598 741.8 306.27 744.68 307.614 746.664C309.022 748.648 310.91 749.64 313.278 749.64C316.67 749.64 318.91 747.88 319.998 744.36H339.966C338.622 751.016 335.614 756.232 330.942 760.008C326.27 763.784 320.51 765.672 313.662 765.672C308.35 765.672 303.614 764.552 299.454 762.312C295.358 760.072 292.158 756.872 289.854 752.712C287.55 748.552 286.398 743.656 286.398 738.024ZM383.206 710.664C389.35 710.664 394.214 712.744 397.798 716.904C401.446 721 403.27 726.568 403.27 733.608V765H384.454V736.104C384.454 733.032 383.654 730.632 382.054 728.904C380.454 727.112 378.31 726.216 375.622 726.216C372.806 726.216 370.598 727.112 368.998 728.904C367.398 730.632 366.598 733.032 366.598 736.104V765H347.782V693.96H366.598V718.824C368.262 716.392 370.502 714.44 373.318 712.968C376.198 711.432 379.494 710.664 383.206 710.664ZM474.786 753.96H450.786L447.138 765H427.362L452.034 697.32H473.73L498.306 765H478.434L474.786 753.96ZM470.082 739.56L462.786 717.672L455.586 739.56H470.082ZM501.367 738.024C501.367 732.456 502.519 727.592 504.823 723.432C507.127 719.272 510.327 716.072 514.423 713.832C518.583 711.592 523.319 710.472 528.631 710.472C535.479 710.472 541.239 712.36 545.911 716.136C550.583 719.848 553.591 725.064 554.935 731.784H534.967C533.815 728.264 531.575 726.504 528.247 726.504C525.879 726.504 523.991 727.496 522.583 729.48C521.239 731.4 520.567 734.248 520.567 738.024C520.567 741.8 521.239 744.68 522.583 746.664C523.991 748.648 525.879 749.64 528.247 749.64C531.639 749.64 533.879 747.88 534.967 744.36H554.935C553.591 751.016 550.583 756.232 545.911 760.008C541.239 763.784 535.479 765.672 528.631 765.672C523.319 765.672 518.583 764.552 514.423 762.312C510.327 760.072 507.127 756.872 504.823 752.712C502.519 748.552 501.367 743.656 501.367 738.024ZM559.679 738.024C559.679 732.456 560.671 727.592 562.655 723.432C564.703 719.272 567.455 716.072 570.911 713.832C574.431 711.592 578.335 710.472 582.623 710.472C586.335 710.472 589.535 711.208 592.223 712.68C594.911 714.152 596.991 716.136 598.463 718.632V711.144H617.279V765H598.463V757.512C596.991 760.008 594.879 761.992 592.127 763.464C589.439 764.936 586.271 765.672 582.623 765.672C578.335 765.672 574.431 764.552 570.911 762.312C567.455 760.072 564.703 756.872 562.655 752.712C560.671 748.488 559.679 743.592 559.679 738.024ZM598.463 738.024C598.463 734.568 597.503 731.848 595.583 729.864C593.727 727.88 591.423 726.888 588.671 726.888C585.855 726.888 583.519 727.88 581.663 729.864C579.807 731.784 578.879 734.504 578.879 738.024C578.879 741.48 579.807 744.232 581.663 746.28C583.519 748.264 585.855 749.256 588.671 749.256C591.423 749.256 593.727 748.264 595.583 746.28C597.503 744.296 598.463 741.544 598.463 738.024ZM624.929 738.024C624.929 732.456 625.921 727.592 627.905 723.432C629.953 719.272 632.737 716.072 636.257 713.832C639.777 711.592 643.681 710.472 647.969 710.472C651.425 710.472 654.497 711.208 657.185 712.68C659.937 714.088 662.081 716.04 663.617 718.536V693.96H682.529V765H663.617V757.512C662.145 760.008 660.065 761.992 657.377 763.464C654.689 764.936 651.521 765.672 647.873 765.672C643.585 765.672 639.681 764.552 636.161 762.312C632.705 760.072 629.953 756.872 627.905 752.712C625.921 748.488 624.929 743.592 624.929 738.024ZM663.713 738.024C663.713 734.568 662.753 731.848 660.833 729.864C658.977 727.88 656.673 726.888 653.921 726.888C651.105 726.888 648.769 727.88 646.913 729.864C645.057 731.784 644.129 734.504 644.129 738.024C644.129 741.48 645.057 744.232 646.913 746.28C648.769 748.264 651.105 749.256 653.921 749.256C656.673 749.256 658.977 748.264 660.833 746.28C662.753 744.296 663.713 741.544 663.713 738.024ZM744.707 737.448C744.707 738.92 744.611 740.392 744.419 741.864H708.803C708.995 744.808 709.795 747.016 711.203 748.488C712.675 749.896 714.531 750.6 716.771 750.6C719.907 750.6 722.147 749.192 723.491 746.376H743.555C742.723 750.088 741.091 753.416 738.659 756.36C736.291 759.24 733.283 761.512 729.635 763.176C725.987 764.84 721.955 765.672 717.539 765.672C712.227 765.672 707.491 764.552 703.331 762.312C699.235 760.072 696.003 756.872 693.635 752.712C691.331 748.552 690.179 743.656 690.179 738.024C690.179 732.392 691.331 727.528 693.635 723.432C695.939 719.272 699.139 716.072 703.235 713.832C707.395 711.592 712.163 710.472 717.539 710.472C722.851 710.472 727.555 711.56 731.651 713.736C735.747 715.912 738.947 719.048 741.251 723.144C743.555 727.176 744.707 731.944 744.707 737.448ZM725.507 732.744C725.507 730.44 724.739 728.648 723.203 727.368C721.667 726.024 719.747 725.352 717.443 725.352C715.139 725.352 713.251 725.992 711.779 727.272C710.307 728.488 709.347 730.312 708.899 732.744H725.507ZM822.775 710.664C829.559 710.664 834.871 712.712 838.711 716.808C842.615 720.904 844.567 726.504 844.567 733.608V765H825.751V736.104C825.751 733.224 824.951 730.984 823.351 729.384C821.751 727.784 819.575 726.984 816.823 726.984C814.071 726.984 811.895 727.784 810.295 729.384C808.695 730.984 807.895 733.224 807.895 736.104V765H789.079V736.104C789.079 733.224 788.279 730.984 786.679 729.384C785.143 727.784 782.999 726.984 780.247 726.984C777.431 726.984 775.223 727.784 773.623 729.384C772.023 730.984 771.223 733.224 771.223 736.104V765H752.407V711.144H771.223V718.248C772.887 715.944 775.031 714.12 777.655 712.776C780.343 711.368 783.415 710.664 786.871 710.664C790.839 710.664 794.359 711.528 797.431 713.256C800.567 714.984 803.031 717.416 804.823 720.552C806.743 717.608 809.271 715.24 812.407 713.448C815.543 711.592 818.999 710.664 822.775 710.664ZM912.86 711.144L878.684 790.632H858.236L871.1 762.696L849.02 711.144H869.948L881.276 741.672L892.22 711.144H912.86Z" fill="white"/>
<path d="M319.572 809.28C319.572 811.6 318.772 813.533 317.172 815.08C315.598 816.6 313.185 817.36 309.932 817.36H304.572V829H300.932V801.12H309.932C313.078 801.12 315.465 801.88 317.092 803.4C318.745 804.92 319.572 806.88 319.572 809.28ZM309.932 814.36C311.958 814.36 313.452 813.92 314.412 813.04C315.372 812.16 315.852 810.907 315.852 809.28C315.852 805.84 313.878 804.12 309.932 804.12H304.572V814.36H309.932ZM327.736 810.64C328.376 809.387 329.282 808.413 330.456 807.72C331.656 807.027 333.109 806.68 334.816 806.68V810.44H333.856C329.776 810.44 327.736 812.653 327.736 817.08V829H324.096V807.08H327.736V810.64ZM348.578 829.36C346.524 829.36 344.658 828.893 342.978 827.96C341.324 827.027 340.018 825.707 339.058 824C338.124 822.267 337.658 820.267 337.658 818C337.658 815.76 338.138 813.787 339.098 812.08C340.084 810.347 341.418 809.027 343.098 808.12C344.778 807.187 346.658 806.72 348.738 806.72C350.818 806.72 352.698 807.187 354.378 808.12C356.058 809.027 357.378 810.333 358.338 812.04C359.324 813.747 359.818 815.733 359.818 818C359.818 820.267 359.311 822.267 358.298 824C357.311 825.707 355.964 827.027 354.258 827.96C352.551 828.893 350.658 829.36 348.578 829.36ZM348.578 826.16C349.884 826.16 351.111 825.853 352.258 825.24C353.404 824.627 354.324 823.707 355.018 822.48C355.738 821.253 356.098 819.76 356.098 818C356.098 816.24 355.751 814.747 355.058 813.52C354.364 812.293 353.458 811.387 352.338 810.8C351.218 810.187 350.004 809.88 348.698 809.88C347.364 809.88 346.138 810.187 345.018 810.8C343.924 811.387 343.044 812.293 342.378 813.52C341.711 814.747 341.378 816.24 341.378 818C341.378 819.787 341.698 821.293 342.338 822.52C343.004 823.747 343.884 824.667 344.978 825.28C346.071 825.867 347.271 826.16 348.578 826.16ZM373.643 806.72C375.537 806.72 377.19 807.133 378.603 807.96C380.043 808.787 381.11 809.827 381.803 811.08V807.08H385.483V829.48C385.483 831.48 385.057 833.253 384.203 834.8C383.35 836.373 382.123 837.6 380.523 838.48C378.95 839.36 377.11 839.8 375.003 839.8C372.123 839.8 369.723 839.12 367.803 837.76C365.883 836.4 364.75 834.547 364.403 832.2H368.003C368.403 833.533 369.23 834.6 370.483 835.4C371.737 836.227 373.243 836.64 375.003 836.64C377.003 836.64 378.63 836.013 379.883 834.76C381.163 833.507 381.803 831.747 381.803 829.48V824.88C381.083 826.16 380.017 827.227 378.603 828.08C377.19 828.933 375.537 829.36 373.643 829.36C371.697 829.36 369.923 828.88 368.323 827.92C366.75 826.96 365.51 825.613 364.603 823.88C363.697 822.147 363.243 820.173 363.243 817.96C363.243 815.72 363.697 813.76 364.603 812.08C365.51 810.373 366.75 809.053 368.323 808.12C369.923 807.187 371.697 806.72 373.643 806.72ZM381.803 818C381.803 816.347 381.47 814.907 380.803 813.68C380.137 812.453 379.23 811.52 378.083 810.88C376.963 810.213 375.723 809.88 374.363 809.88C373.003 809.88 371.763 810.2 370.643 810.84C369.523 811.48 368.63 812.413 367.963 813.64C367.297 814.867 366.963 816.307 366.963 817.96C366.963 819.64 367.297 821.107 367.963 822.36C368.63 823.587 369.523 824.533 370.643 825.2C371.763 825.84 373.003 826.16 374.363 826.16C375.723 826.16 376.963 825.84 378.083 825.2C379.23 824.533 380.137 823.587 380.803 822.36C381.47 821.107 381.803 819.653 381.803 818ZM395.275 810.64C395.915 809.387 396.821 808.413 397.995 807.72C399.195 807.027 400.648 806.68 402.355 806.68V810.44H401.395C397.315 810.44 395.275 812.653 395.275 817.08V829H391.635V807.08H395.275V810.64ZM405.197 817.96C405.197 815.72 405.65 813.76 406.557 812.08C407.463 810.373 408.703 809.053 410.277 808.12C411.877 807.187 413.65 806.72 415.597 806.72C417.517 806.72 419.183 807.133 420.597 807.96C422.01 808.787 423.063 809.827 423.757 811.08V807.08H427.437V829H423.757V824.92C423.037 826.2 421.957 827.267 420.517 828.12C419.103 828.947 417.45 829.36 415.557 829.36C413.61 829.36 411.85 828.88 410.277 827.92C408.703 826.96 407.463 825.613 406.557 823.88C405.65 822.147 405.197 820.173 405.197 817.96ZM423.757 818C423.757 816.347 423.423 814.907 422.757 813.68C422.09 812.453 421.183 811.52 420.037 810.88C418.917 810.213 417.677 809.88 416.317 809.88C414.957 809.88 413.717 810.2 412.597 810.84C411.477 811.48 410.583 812.413 409.917 813.64C409.25 814.867 408.917 816.307 408.917 817.96C408.917 819.64 409.25 821.107 409.917 822.36C410.583 823.587 411.477 824.533 412.597 825.2C413.717 825.84 414.957 826.16 416.317 826.16C417.677 826.16 418.917 825.84 420.037 825.2C421.183 824.533 422.09 823.587 422.757 822.36C423.423 821.107 423.757 819.653 423.757 818ZM459.948 806.68C461.654 806.68 463.174 807.04 464.508 807.76C465.841 808.453 466.894 809.507 467.668 810.92C468.441 812.333 468.828 814.053 468.828 816.08V829H465.228V816.6C465.228 814.413 464.681 812.747 463.588 811.6C462.521 810.427 461.068 809.84 459.228 809.84C457.334 809.84 455.828 810.453 454.708 811.68C453.588 812.88 453.028 814.627 453.028 816.92V829H449.428V816.6C449.428 814.413 448.881 812.747 447.788 811.6C446.721 810.427 445.268 809.84 443.428 809.84C441.534 809.84 440.028 810.453 438.908 811.68C437.788 812.88 437.228 814.627 437.228 816.92V829H433.588V807.08H437.228V810.24C437.948 809.093 438.908 808.213 440.108 807.6C441.334 806.987 442.681 806.68 444.148 806.68C445.988 806.68 447.614 807.093 449.028 807.92C450.441 808.747 451.494 809.96 452.188 811.56C452.801 810.013 453.814 808.813 455.228 807.96C456.641 807.107 458.214 806.68 459.948 806.68ZM501.159 806.68C502.865 806.68 504.385 807.04 505.719 807.76C507.052 808.453 508.105 809.507 508.879 810.92C509.652 812.333 510.039 814.053 510.039 816.08V829H506.439V816.6C506.439 814.413 505.892 812.747 504.799 811.6C503.732 810.427 502.279 809.84 500.439 809.84C498.545 809.84 497.039 810.453 495.919 811.68C494.799 812.88 494.239 814.627 494.239 816.92V829H490.639V816.6C490.639 814.413 490.092 812.747 488.999 811.6C487.932 810.427 486.479 809.84 484.639 809.84C482.745 809.84 481.239 810.453 480.119 811.68C478.999 812.88 478.439 814.627 478.439 816.92V829H474.799V807.08H478.439V810.24C479.159 809.093 480.119 808.213 481.319 807.6C482.545 806.987 483.892 806.68 485.359 806.68C487.199 806.68 488.825 807.093 490.239 807.92C491.652 808.747 492.705 809.96 493.399 811.56C494.012 810.013 495.025 808.813 496.439 807.96C497.852 807.107 499.425 806.68 501.159 806.68ZM517.89 803.52C517.196 803.52 516.61 803.28 516.13 802.8C515.65 802.32 515.41 801.733 515.41 801.04C515.41 800.347 515.65 799.76 516.13 799.28C516.61 798.8 517.196 798.56 517.89 798.56C518.556 798.56 519.116 798.8 519.57 799.28C520.05 799.76 520.29 800.347 520.29 801.04C520.29 801.733 520.05 802.32 519.57 802.8C519.116 803.28 518.556 803.52 517.89 803.52ZM519.65 807.08V829H516.01V807.08H519.65ZM536.533 806.68C539.2 806.68 541.36 807.493 543.013 809.12C544.667 810.72 545.493 813.04 545.493 816.08V829H541.893V816.6C541.893 814.413 541.347 812.747 540.253 811.6C539.16 810.427 537.667 809.84 535.773 809.84C533.853 809.84 532.32 810.44 531.173 811.64C530.053 812.84 529.493 814.587 529.493 816.88V829H525.853V807.08H529.493V810.2C530.213 809.08 531.187 808.213 532.413 807.6C533.667 806.987 535.04 806.68 536.533 806.68ZM560.479 806.72C562.373 806.72 564.026 807.133 565.439 807.96C566.879 808.787 567.946 809.827 568.639 811.08V807.08H572.319V829.48C572.319 831.48 571.893 833.253 571.039 834.8C570.186 836.373 568.959 837.6 567.359 838.48C565.786 839.36 563.946 839.8 561.839 839.8C558.959 839.8 556.559 839.12 554.639 837.76C552.719 836.4 551.586 834.547 551.239 832.2H554.839C555.239 833.533 556.066 834.6 557.319 835.4C558.573 836.227 560.079 836.64 561.839 836.64C563.839 836.64 565.466 836.013 566.719 834.76C567.999 833.507 568.639 831.747 568.639 829.48V824.88C567.919 826.16 566.853 827.227 565.439 828.08C564.026 828.933 562.373 829.36 560.479 829.36C558.533 829.36 556.759 828.88 555.159 827.92C553.586 826.96 552.346 825.613 551.439 823.88C550.533 822.147 550.079 820.173 550.079 817.96C550.079 815.72 550.533 813.76 551.439 812.08C552.346 810.373 553.586 809.053 555.159 808.12C556.759 807.187 558.533 806.72 560.479 806.72ZM568.639 818C568.639 816.347 568.306 814.907 567.639 813.68C566.973 812.453 566.066 811.52 564.919 810.88C563.799 810.213 562.559 809.88 561.199 809.88C559.839 809.88 558.599 810.2 557.479 810.84C556.359 811.48 555.466 812.413 554.799 813.64C554.133 814.867 553.799 816.307 553.799 817.96C553.799 819.64 554.133 821.107 554.799 822.36C555.466 823.587 556.359 824.533 557.479 825.2C558.599 825.84 559.839 826.16 561.199 826.16C562.559 826.16 563.799 825.84 564.919 825.2C566.066 824.533 566.973 823.587 567.639 822.36C568.306 821.107 568.639 819.653 568.639 818ZM597.975 829.28C596.135 829.28 594.481 828.96 593.015 828.32C591.575 827.653 590.441 826.747 589.615 825.6C588.788 824.427 588.361 823.08 588.335 821.56H592.215C592.348 822.867 592.881 823.973 593.815 824.88C594.775 825.76 596.161 826.2 597.975 826.2C599.708 826.2 601.068 825.773 602.055 824.92C603.068 824.04 603.575 822.92 603.575 821.56C603.575 820.493 603.281 819.627 602.695 818.96C602.108 818.293 601.375 817.787 600.495 817.44C599.615 817.093 598.428 816.72 596.935 816.32C595.095 815.84 593.615 815.36 592.495 814.88C591.401 814.4 590.455 813.653 589.655 812.64C588.881 811.6 588.495 810.213 588.495 808.48C588.495 806.96 588.881 805.613 589.655 804.44C590.428 803.267 591.508 802.36 592.895 801.72C594.308 801.08 595.921 800.76 597.735 800.76C600.348 800.76 602.481 801.413 604.135 802.72C605.815 804.027 606.761 805.76 606.975 807.92H602.975C602.841 806.853 602.281 805.92 601.295 805.12C600.308 804.293 599.001 803.88 597.375 803.88C595.855 803.88 594.615 804.28 593.655 805.08C592.695 805.853 592.215 806.947 592.215 808.36C592.215 809.373 592.495 810.2 593.055 810.84C593.641 811.48 594.348 811.973 595.175 812.32C596.028 812.64 597.215 813.013 598.735 813.44C600.575 813.947 602.055 814.453 603.175 814.96C604.295 815.44 605.255 816.2 606.055 817.24C606.855 818.253 607.255 819.64 607.255 821.4C607.255 822.76 606.895 824.04 606.175 825.24C605.455 826.44 604.388 827.413 602.975 828.16C601.561 828.907 599.895 829.28 597.975 829.28ZM614.491 803.52C613.798 803.52 613.211 803.28 612.731 802.8C612.251 802.32 612.011 801.733 612.011 801.04C612.011 800.347 612.251 799.76 612.731 799.28C613.211 798.8 613.798 798.56 614.491 798.56C615.158 798.56 615.718 798.8 616.171 799.28C616.651 799.76 616.891 800.347 616.891 801.04C616.891 801.733 616.651 802.32 616.171 802.8C615.718 803.28 615.158 803.52 614.491 803.52ZM616.251 807.08V829H612.611V807.08H616.251ZM648.815 806.68C650.522 806.68 652.042 807.04 653.375 807.76C654.708 808.453 655.762 809.507 656.535 810.92C657.308 812.333 657.695 814.053 657.695 816.08V829H654.095V816.6C654.095 814.413 653.548 812.747 652.455 811.6C651.388 810.427 649.935 809.84 648.095 809.84C646.202 809.84 644.695 810.453 643.575 811.68C642.455 812.88 641.895 814.627 641.895 816.92V829H638.295V816.6C638.295 814.413 637.748 812.747 636.655 811.6C635.588 810.427 634.135 809.84 632.295 809.84C630.402 809.84 628.895 810.453 627.775 811.68C626.655 812.88 626.095 814.627 626.095 816.92V829H622.455V807.08H626.095V810.24C626.815 809.093 627.775 808.213 628.975 807.6C630.202 806.987 631.548 806.68 633.015 806.68C634.855 806.68 636.482 807.093 637.895 807.92C639.308 808.747 640.362 809.96 641.055 811.56C641.668 810.013 642.682 808.813 644.095 807.96C645.508 807.107 647.082 806.68 648.815 806.68ZM667.306 811.12C668.026 809.867 669.093 808.827 670.506 808C671.946 807.147 673.613 806.72 675.506 806.72C677.453 806.72 679.213 807.187 680.786 808.12C682.386 809.053 683.639 810.373 684.546 812.08C685.453 813.76 685.906 815.72 685.906 817.96C685.906 820.173 685.453 822.147 684.546 823.88C683.639 825.613 682.386 826.96 680.786 827.92C679.213 828.88 677.453 829.36 675.506 829.36C673.639 829.36 671.986 828.947 670.546 828.12C669.133 827.267 668.053 826.213 667.306 824.96V839.4H663.666V807.08H667.306V811.12ZM682.186 817.96C682.186 816.307 681.853 814.867 681.186 813.64C680.519 812.413 679.613 811.48 678.466 810.84C677.346 810.2 676.106 809.88 674.746 809.88C673.413 809.88 672.173 810.213 671.026 810.88C669.906 811.52 668.999 812.467 668.306 813.72C667.639 814.947 667.306 816.373 667.306 818C667.306 819.653 667.639 821.107 668.306 822.36C668.999 823.587 669.906 824.533 671.026 825.2C672.173 825.84 673.413 826.16 674.746 826.16C676.106 826.16 677.346 825.84 678.466 825.2C679.613 824.533 680.519 823.587 681.186 822.36C681.853 821.107 682.186 819.64 682.186 817.96ZM694.337 799.4V829H690.697V799.4H694.337ZM702.421 803.52C701.728 803.52 701.141 803.28 700.661 802.8C700.181 802.32 699.941 801.733 699.941 801.04C699.941 800.347 700.181 799.76 700.661 799.28C701.141 798.8 701.728 798.56 702.421 798.56C703.088 798.56 703.648 798.8 704.101 799.28C704.581 799.76 704.821 800.347 704.821 801.04C704.821 801.733 704.581 802.32 704.101 802.8C703.648 803.28 703.088 803.52 702.421 803.52ZM704.181 807.08V829H700.541V807.08H704.181ZM719.305 810.08H714.705V829H711.065V810.08H708.225V807.08H711.065V805.52C711.065 803.067 711.691 801.28 712.945 800.16C714.225 799.013 716.265 798.44 719.065 798.44V801.48C717.465 801.48 716.331 801.8 715.665 802.44C715.025 803.053 714.705 804.08 714.705 805.52V807.08H719.305V810.08ZM725.429 803.52C724.735 803.52 724.149 803.28 723.669 802.8C723.189 802.32 722.949 801.733 722.949 801.04C722.949 800.347 723.189 799.76 723.669 799.28C724.149 798.8 724.735 798.56 725.429 798.56C726.095 798.56 726.655 798.8 727.109 799.28C727.589 799.76 727.829 800.347 727.829 801.04C727.829 801.733 727.589 802.32 727.109 802.8C726.655 803.28 726.095 803.52 725.429 803.52ZM727.189 807.08V829H723.549V807.08H727.189ZM753.393 817.2C753.393 817.893 753.353 818.627 753.273 819.4H735.753C735.886 821.56 736.619 823.253 737.953 824.48C739.313 825.68 740.953 826.28 742.873 826.28C744.446 826.28 745.753 825.92 746.793 825.2C747.859 824.453 748.606 823.467 749.033 822.24H752.953C752.366 824.347 751.193 826.067 749.433 827.4C747.673 828.707 745.486 829.36 742.873 829.36C740.793 829.36 738.926 828.893 737.273 827.96C735.646 827.027 734.366 825.707 733.433 824C732.499 822.267 732.033 820.267 732.033 818C732.033 815.733 732.486 813.747 733.393 812.04C734.299 810.333 735.566 809.027 737.193 808.12C738.846 807.187 740.739 806.72 742.873 806.72C744.953 806.72 746.793 807.173 748.393 808.08C749.993 808.987 751.219 810.24 752.073 811.84C752.953 813.413 753.393 815.2 753.393 817.2ZM749.633 816.44C749.633 815.053 749.326 813.867 748.713 812.88C748.099 811.867 747.259 811.107 746.193 810.6C745.153 810.067 743.993 809.8 742.713 809.8C740.873 809.8 739.299 810.387 737.993 811.56C736.713 812.733 735.979 814.36 735.793 816.44H749.633ZM756.837 817.96C756.837 815.72 757.291 813.76 758.197 812.08C759.104 810.373 760.344 809.053 761.917 808.12C763.517 807.187 765.304 806.72 767.277 806.72C768.984 806.72 770.571 807.12 772.037 807.92C773.504 808.693 774.624 809.72 775.397 811V799.4H779.077V829H775.397V824.88C774.677 826.187 773.611 827.267 772.197 828.12C770.784 828.947 769.131 829.36 767.237 829.36C765.291 829.36 763.517 828.88 761.917 827.92C760.344 826.96 759.104 825.613 758.197 823.88C757.291 822.147 756.837 820.173 756.837 817.96ZM775.397 818C775.397 816.347 775.064 814.907 774.397 813.68C773.731 812.453 772.824 811.52 771.677 810.88C770.557 810.213 769.317 809.88 767.957 809.88C766.597 809.88 765.357 810.2 764.237 810.84C763.117 811.48 762.224 812.413 761.557 813.64C760.891 814.867 760.557 816.307 760.557 817.96C760.557 819.64 760.891 821.107 761.557 822.36C762.224 823.587 763.117 824.533 764.237 825.2C765.357 825.84 766.597 826.16 767.957 826.16C769.317 826.16 770.557 825.84 771.677 825.2C772.824 824.533 773.731 823.587 774.397 822.36C775.064 821.107 775.397 819.653 775.397 818Z" fill="white"/>
</svg>
